<mxfile host="app.diagrams.net" modified="2022-04-08T17:36:48.154Z" agent="5.0 (Windows NT 10.0; WOW64) AppleWebKit/537.36 (KHTML, like Gecko) Chrome/75.0.3770.100 Safari/537.36" etag="FCEKhy4JGa8Of8Oin0XA" version="17.4.0" type="github">
  <diagram name="Page-1" id="929967ad-93f9-6ef4-fab6-5d389245f69c">
    <mxGraphModel dx="1483" dy="777" grid="1" gridSize="10" guides="1" tooltips="1" connect="1" arrows="1" fold="1" page="1" pageScale="1.5" pageWidth="1169" pageHeight="826" background="none" math="0" shadow="0">
      <root>
        <mxCell id="0" style=";html=1;" />
        <mxCell id="1" style=";html=1;" parent="0" />
        <mxCell id="1672d66443f91eb5-23" value="Title" style="text;strokeColor=none;fillColor=none;html=1;fontSize=24;fontStyle=1;verticalAlign=middle;align=center;" parent="1" vertex="1">
          <mxGeometry x="120" y="40" width="1510" height="40" as="geometry" />
        </mxCell>
        <mxCell id="pMkhCEyC3vt6UdYzmjZF-7" style="edgeStyle=orthogonalEdgeStyle;rounded=0;orthogonalLoop=1;jettySize=auto;html=1;entryX=0.5;entryY=0;entryDx=0;entryDy=0;fontFamily=Comic Sans MS;" edge="1" parent="1" source="pMkhCEyC3vt6UdYzmjZF-2">
          <mxGeometry relative="1" as="geometry">
            <mxPoint x="580" y="680" as="targetPoint" />
          </mxGeometry>
        </mxCell>
        <mxCell id="pMkhCEyC3vt6UdYzmjZF-2" value="登入页面" style="rounded=0;whiteSpace=wrap;html=1;" vertex="1" parent="1">
          <mxGeometry x="520" y="540" width="120" height="60" as="geometry" />
        </mxCell>
        <mxCell id="pMkhCEyC3vt6UdYzmjZF-10" style="edgeStyle=orthogonalEdgeStyle;rounded=0;orthogonalLoop=1;jettySize=auto;html=1;entryX=0;entryY=0.5;entryDx=0;entryDy=0;fontFamily=Comic Sans MS;" edge="1" parent="1" source="pMkhCEyC3vt6UdYzmjZF-8" target="pMkhCEyC3vt6UdYzmjZF-9">
          <mxGeometry relative="1" as="geometry" />
        </mxCell>
        <mxCell id="pMkhCEyC3vt6UdYzmjZF-30" style="edgeStyle=orthogonalEdgeStyle;rounded=0;orthogonalLoop=1;jettySize=auto;html=1;entryX=0.5;entryY=0;entryDx=0;entryDy=0;fontFamily=Comic Sans MS;" edge="1" parent="1" source="pMkhCEyC3vt6UdYzmjZF-8">
          <mxGeometry relative="1" as="geometry">
            <mxPoint x="580" y="800" as="targetPoint" />
          </mxGeometry>
        </mxCell>
        <mxCell id="pMkhCEyC3vt6UdYzmjZF-8" value="" style="rhombus;whiteSpace=wrap;html=1;fontFamily=Comic Sans MS;" vertex="1" parent="1">
          <mxGeometry x="520" y="680" width="120" height="60" as="geometry" />
        </mxCell>
        <mxCell id="pMkhCEyC3vt6UdYzmjZF-12" style="edgeStyle=orthogonalEdgeStyle;rounded=0;orthogonalLoop=1;jettySize=auto;html=1;entryX=0;entryY=0.5;entryDx=0;entryDy=0;fontFamily=Comic Sans MS;startArrow=none;" edge="1" parent="1" source="pMkhCEyC3vt6UdYzmjZF-25">
          <mxGeometry relative="1" as="geometry">
            <mxPoint x="890" y="710" as="targetPoint" />
          </mxGeometry>
        </mxCell>
        <mxCell id="pMkhCEyC3vt6UdYzmjZF-9" value="" style="rounded=0;whiteSpace=wrap;html=1;" vertex="1" parent="1">
          <mxGeometry x="700" y="680" width="120" height="60" as="geometry" />
        </mxCell>
        <mxCell id="pMkhCEyC3vt6UdYzmjZF-18" style="edgeStyle=orthogonalEdgeStyle;rounded=0;orthogonalLoop=1;jettySize=auto;html=1;entryX=0;entryY=0.5;entryDx=0;entryDy=0;fontFamily=Comic Sans MS;" edge="1" parent="1" source="pMkhCEyC3vt6UdYzmjZF-13" target="pMkhCEyC3vt6UdYzmjZF-14">
          <mxGeometry relative="1" as="geometry" />
        </mxCell>
        <mxCell id="pMkhCEyC3vt6UdYzmjZF-13" value="" style="rhombus;whiteSpace=wrap;html=1;fontFamily=Comic Sans MS;" vertex="1" parent="1">
          <mxGeometry x="890" y="680" width="120" height="60" as="geometry" />
        </mxCell>
        <mxCell id="pMkhCEyC3vt6UdYzmjZF-19" style="edgeStyle=orthogonalEdgeStyle;rounded=0;orthogonalLoop=1;jettySize=auto;html=1;entryX=0;entryY=0.5;entryDx=0;entryDy=0;fontFamily=Comic Sans MS;" edge="1" parent="1" source="pMkhCEyC3vt6UdYzmjZF-14" target="pMkhCEyC3vt6UdYzmjZF-15">
          <mxGeometry relative="1" as="geometry" />
        </mxCell>
        <mxCell id="pMkhCEyC3vt6UdYzmjZF-14" value="" style="rounded=0;whiteSpace=wrap;html=1;" vertex="1" parent="1">
          <mxGeometry x="1070" y="680" width="120" height="60" as="geometry" />
        </mxCell>
        <mxCell id="pMkhCEyC3vt6UdYzmjZF-20" style="edgeStyle=orthogonalEdgeStyle;rounded=0;orthogonalLoop=1;jettySize=auto;html=1;entryX=0;entryY=0.5;entryDx=0;entryDy=0;fontFamily=Comic Sans MS;" edge="1" parent="1" source="pMkhCEyC3vt6UdYzmjZF-15" target="pMkhCEyC3vt6UdYzmjZF-16">
          <mxGeometry relative="1" as="geometry" />
        </mxCell>
        <mxCell id="pMkhCEyC3vt6UdYzmjZF-15" value="" style="rhombus;whiteSpace=wrap;html=1;fontFamily=Comic Sans MS;" vertex="1" parent="1">
          <mxGeometry x="1270" y="680" width="120" height="60" as="geometry" />
        </mxCell>
        <mxCell id="pMkhCEyC3vt6UdYzmjZF-21" style="edgeStyle=orthogonalEdgeStyle;rounded=0;orthogonalLoop=1;jettySize=auto;html=1;entryX=0;entryY=0.5;entryDx=0;entryDy=0;fontFamily=Comic Sans MS;" edge="1" parent="1" source="pMkhCEyC3vt6UdYzmjZF-16" target="pMkhCEyC3vt6UdYzmjZF-17">
          <mxGeometry relative="1" as="geometry" />
        </mxCell>
        <mxCell id="pMkhCEyC3vt6UdYzmjZF-16" value="" style="rounded=0;whiteSpace=wrap;html=1;" vertex="1" parent="1">
          <mxGeometry x="1480" y="680" width="120" height="60" as="geometry" />
        </mxCell>
        <mxCell id="pMkhCEyC3vt6UdYzmjZF-22" style="edgeStyle=orthogonalEdgeStyle;rounded=0;orthogonalLoop=1;jettySize=auto;html=1;entryX=0.5;entryY=0;entryDx=0;entryDy=0;fontFamily=Comic Sans MS;" edge="1" parent="1" source="pMkhCEyC3vt6UdYzmjZF-17" target="pMkhCEyC3vt6UdYzmjZF-16">
          <mxGeometry relative="1" as="geometry">
            <Array as="points">
              <mxPoint x="1750" y="630" />
              <mxPoint x="1540" y="630" />
            </Array>
          </mxGeometry>
        </mxCell>
        <mxCell id="pMkhCEyC3vt6UdYzmjZF-24" style="edgeStyle=orthogonalEdgeStyle;rounded=0;orthogonalLoop=1;jettySize=auto;html=1;fontFamily=Comic Sans MS;" edge="1" parent="1" source="pMkhCEyC3vt6UdYzmjZF-17">
          <mxGeometry relative="1" as="geometry">
            <mxPoint x="1750" y="810" as="targetPoint" />
          </mxGeometry>
        </mxCell>
        <mxCell id="pMkhCEyC3vt6UdYzmjZF-17" value="" style="rhombus;whiteSpace=wrap;html=1;fontFamily=Comic Sans MS;" vertex="1" parent="1">
          <mxGeometry x="1690" y="680" width="120" height="60" as="geometry" />
        </mxCell>
        <mxCell id="pMkhCEyC3vt6UdYzmjZF-23" value="" style="rounded=0;whiteSpace=wrap;html=1;" vertex="1" parent="1">
          <mxGeometry x="1690" y="810" width="120" height="60" as="geometry" />
        </mxCell>
        <mxCell id="pMkhCEyC3vt6UdYzmjZF-25" value="Text" style="text;html=1;resizable=0;autosize=1;align=center;verticalAlign=middle;points=[];fillColor=none;strokeColor=none;rounded=0;fontFamily=Comic Sans MS;" vertex="1" parent="1">
          <mxGeometry x="836.75" y="700" width="40" height="20" as="geometry" />
        </mxCell>
        <mxCell id="pMkhCEyC3vt6UdYzmjZF-26" value="" style="edgeStyle=orthogonalEdgeStyle;rounded=0;orthogonalLoop=1;jettySize=auto;html=1;entryX=0;entryY=0.5;entryDx=0;entryDy=0;fontFamily=Comic Sans MS;endArrow=none;" edge="1" parent="1" source="pMkhCEyC3vt6UdYzmjZF-9" target="pMkhCEyC3vt6UdYzmjZF-25">
          <mxGeometry relative="1" as="geometry">
            <mxPoint x="820" y="710" as="sourcePoint" />
            <mxPoint x="890" y="710" as="targetPoint" />
          </mxGeometry>
        </mxCell>
        <mxCell id="pMkhCEyC3vt6UdYzmjZF-37" style="edgeStyle=orthogonalEdgeStyle;rounded=0;orthogonalLoop=1;jettySize=auto;html=1;entryX=0.5;entryY=0;entryDx=0;entryDy=0;fontFamily=Comic Sans MS;" edge="1" parent="1" source="pMkhCEyC3vt6UdYzmjZF-31" target="pMkhCEyC3vt6UdYzmjZF-33">
          <mxGeometry relative="1" as="geometry" />
        </mxCell>
        <mxCell id="pMkhCEyC3vt6UdYzmjZF-41" style="edgeStyle=orthogonalEdgeStyle;rounded=0;orthogonalLoop=1;jettySize=auto;html=1;fontFamily=Comic Sans MS;entryX=0;entryY=0.5;entryDx=0;entryDy=0;" edge="1" parent="1" source="pMkhCEyC3vt6UdYzmjZF-31" target="pMkhCEyC3vt6UdYzmjZF-32">
          <mxGeometry relative="1" as="geometry">
            <mxPoint x="880" y="830" as="targetPoint" />
          </mxGeometry>
        </mxCell>
        <mxCell id="pMkhCEyC3vt6UdYzmjZF-31" value="" style="rhombus;whiteSpace=wrap;html=1;fontFamily=Comic Sans MS;" vertex="1" parent="1">
          <mxGeometry x="520" y="800" width="120" height="60" as="geometry" />
        </mxCell>
        <mxCell id="pMkhCEyC3vt6UdYzmjZF-43" style="edgeStyle=orthogonalEdgeStyle;rounded=0;orthogonalLoop=1;jettySize=auto;html=1;entryX=0.5;entryY=0;entryDx=0;entryDy=0;fontFamily=Comic Sans MS;" edge="1" parent="1" source="pMkhCEyC3vt6UdYzmjZF-32" target="pMkhCEyC3vt6UdYzmjZF-42">
          <mxGeometry relative="1" as="geometry" />
        </mxCell>
        <mxCell id="pMkhCEyC3vt6UdYzmjZF-32" value="" style="rounded=0;whiteSpace=wrap;html=1;" vertex="1" parent="1">
          <mxGeometry x="890" y="800" width="120" height="60" as="geometry" />
        </mxCell>
        <mxCell id="pMkhCEyC3vt6UdYzmjZF-38" style="edgeStyle=orthogonalEdgeStyle;rounded=0;orthogonalLoop=1;jettySize=auto;html=1;entryX=0.5;entryY=0;entryDx=0;entryDy=0;fontFamily=Comic Sans MS;" edge="1" parent="1" source="pMkhCEyC3vt6UdYzmjZF-33" target="pMkhCEyC3vt6UdYzmjZF-35">
          <mxGeometry relative="1" as="geometry" />
        </mxCell>
        <mxCell id="pMkhCEyC3vt6UdYzmjZF-33" value="" style="rounded=0;whiteSpace=wrap;html=1;" vertex="1" parent="1">
          <mxGeometry x="520" y="910" width="120" height="60" as="geometry" />
        </mxCell>
        <mxCell id="pMkhCEyC3vt6UdYzmjZF-34" value="" style="whiteSpace=wrap;html=1;fontFamily=Comic Sans MS;" vertex="1" parent="1">
          <mxGeometry x="757" y="1170" width="120" height="60" as="geometry" />
        </mxCell>
        <mxCell id="pMkhCEyC3vt6UdYzmjZF-39" style="edgeStyle=orthogonalEdgeStyle;rounded=0;orthogonalLoop=1;jettySize=auto;html=1;entryX=0.5;entryY=0;entryDx=0;entryDy=0;fontFamily=Comic Sans MS;" edge="1" parent="1" source="pMkhCEyC3vt6UdYzmjZF-35" target="pMkhCEyC3vt6UdYzmjZF-36">
          <mxGeometry relative="1" as="geometry" />
        </mxCell>
        <mxCell id="pMkhCEyC3vt6UdYzmjZF-35" value="" style="rhombus;whiteSpace=wrap;html=1;fontFamily=Comic Sans MS;" vertex="1" parent="1">
          <mxGeometry x="520" y="1040" width="120" height="60" as="geometry" />
        </mxCell>
        <mxCell id="pMkhCEyC3vt6UdYzmjZF-40" style="edgeStyle=orthogonalEdgeStyle;rounded=0;orthogonalLoop=1;jettySize=auto;html=1;fontFamily=Comic Sans MS;" edge="1" parent="1" source="pMkhCEyC3vt6UdYzmjZF-36">
          <mxGeometry relative="1" as="geometry">
            <mxPoint x="750" y="1200" as="targetPoint" />
          </mxGeometry>
        </mxCell>
        <mxCell id="pMkhCEyC3vt6UdYzmjZF-36" value="" style="rhombus;whiteSpace=wrap;html=1;fontFamily=Comic Sans MS;" vertex="1" parent="1">
          <mxGeometry x="520" y="1170" width="120" height="60" as="geometry" />
        </mxCell>
        <mxCell id="pMkhCEyC3vt6UdYzmjZF-45" style="edgeStyle=orthogonalEdgeStyle;rounded=0;orthogonalLoop=1;jettySize=auto;html=1;entryX=0.5;entryY=0;entryDx=0;entryDy=0;fontFamily=Comic Sans MS;" edge="1" parent="1" source="pMkhCEyC3vt6UdYzmjZF-42" target="pMkhCEyC3vt6UdYzmjZF-44">
          <mxGeometry relative="1" as="geometry" />
        </mxCell>
        <mxCell id="pMkhCEyC3vt6UdYzmjZF-47" style="edgeStyle=orthogonalEdgeStyle;rounded=0;orthogonalLoop=1;jettySize=auto;html=1;entryX=1;entryY=0.5;entryDx=0;entryDy=0;fontFamily=Comic Sans MS;" edge="1" parent="1" source="pMkhCEyC3vt6UdYzmjZF-42" target="pMkhCEyC3vt6UdYzmjZF-32">
          <mxGeometry relative="1" as="geometry">
            <Array as="points">
              <mxPoint x="1100" y="940" />
              <mxPoint x="1100" y="830" />
            </Array>
          </mxGeometry>
        </mxCell>
        <mxCell id="pMkhCEyC3vt6UdYzmjZF-42" value="" style="rhombus;whiteSpace=wrap;html=1;fontFamily=Comic Sans MS;" vertex="1" parent="1">
          <mxGeometry x="890" y="910" width="120" height="60" as="geometry" />
        </mxCell>
        <mxCell id="pMkhCEyC3vt6UdYzmjZF-46" style="edgeStyle=orthogonalEdgeStyle;rounded=0;orthogonalLoop=1;jettySize=auto;html=1;entryX=1;entryY=0.5;entryDx=0;entryDy=0;fontFamily=Comic Sans MS;" edge="1" parent="1" source="pMkhCEyC3vt6UdYzmjZF-44" target="pMkhCEyC3vt6UdYzmjZF-34">
          <mxGeometry relative="1" as="geometry">
            <Array as="points">
              <mxPoint x="950" y="1200" />
            </Array>
          </mxGeometry>
        </mxCell>
        <mxCell id="pMkhCEyC3vt6UdYzmjZF-44" value="" style="rhombus;whiteSpace=wrap;html=1;fontFamily=Comic Sans MS;" vertex="1" parent="1">
          <mxGeometry x="890" y="1040" width="120" height="60" as="geometry" />
        </mxCell>
      </root>
    </mxGraphModel>
  </diagram>
</mxfile>
